<svg preserveAspectRatio="none" width="100%" height="100%" overflow="visible" style="display: block;" viewBox="0 0 42.3955 34.8601" fill="none" xmlns="http://www.w3.org/2000/svg">
<g id="Union">
<mask id="path-1-outside-1_0_4" maskUnits="userSpaceOnUse" x="0" y="0" width="43" height="35" fill="black">
<rect fill="white" width="43" height="35"/>
<path d="M29.9248 1C36.1226 1.0004 41.3954 5.39135 41.3955 11.0928C41.3953 14.3698 39.6507 17.2101 36.9922 19.0361L21.874 32.8848L21.1982 33.5039L20.5225 32.8848L5.4082 19.04C2.74679 17.2141 1.00017 14.3719 1 11.0928C1.00006 5.39121 6.27373 1.00018 12.4717 1C15.9148 1.00011 19.0705 2.35698 21.1973 4.53906C23.3242 2.35653 26.4812 1 29.9248 1ZM2.05078 11.9941C2.05174 12.0026 2.05272 12.0111 2.05371 12.0195C2.03599 11.8676 2.02267 11.7146 2.01367 11.5605L2.05078 11.9941Z"/>
</mask>
<path d="M29.9248 1C36.1226 1.0004 41.3954 5.39135 41.3955 11.0928C41.3953 14.3698 39.6507 17.2101 36.9922 19.0361L21.874 32.8848L21.1982 33.5039L20.5225 32.8848L5.4082 19.04C2.74679 17.2141 1.00017 14.3719 1 11.0928C1.00006 5.39121 6.27373 1.00018 12.4717 1C15.9148 1.00011 19.0705 2.35698 21.1973 4.53906C23.3242 2.35653 26.4812 1 29.9248 1ZM2.05078 11.9941C2.05174 12.0026 2.05272 12.0111 2.05371 12.0195C2.03599 11.8676 2.02267 11.7146 2.01367 11.5605L2.05078 11.9941Z" fill="var(--fill-0, #E1E1E1)"/>
<path d="M29.9248 1L29.9249 0H29.9248V1ZM41.3955 11.0928L42.3955 11.0928V11.0928L41.3955 11.0928ZM36.9922 19.0361L36.426 18.2119L36.3683 18.2515L36.3167 18.2987L36.9922 19.0361ZM21.874 32.8848L21.1986 32.1474L21.1985 32.1474L21.874 32.8848ZM21.1982 33.5039L20.5227 34.2412L21.1982 34.8601L21.8738 34.2412L21.1982 33.5039ZM20.5225 32.8848L21.198 32.1474L21.1979 32.1474L20.5225 32.8848ZM5.4082 19.04L6.08366 18.3026L6.03186 18.2552L5.97393 18.2154L5.4082 19.04ZM1 11.0928L0 11.0928V11.0928L1 11.0928ZM12.4717 1L12.4717 0H12.4717L12.4717 1ZM21.1973 4.53906L20.4811 5.23703L21.1973 5.97183L21.9134 5.23699L21.1973 4.53906ZM2.05078 11.9941L1.05442 12.0794L1.0556 12.0931L1.05715 12.1068L2.05078 11.9941ZM2.01367 11.5605L3.01003 11.4753L1.01537 11.6189L2.01367 11.5605ZM29.9248 1L29.9247 2C35.7113 2.00037 40.3955 6.07484 40.3955 11.0928L41.3955 11.0928L42.3955 11.0928C42.3954 4.70786 36.5338 0.000426948 29.9249 0L29.9248 1ZM41.3955 11.0928L40.3955 11.0927C40.3954 13.9913 38.8561 16.5427 36.426 18.2119L36.9922 19.0361L37.5584 19.8604C40.4453 17.8775 42.3953 14.7484 42.3955 11.0928L41.3955 11.0928ZM36.9922 19.0361L36.3167 18.2987L21.1986 32.1474L21.874 32.8848L22.5495 33.6222L37.6677 19.7735L36.9922 19.0361ZM21.874 32.8848L21.1985 32.1474L20.5227 32.7666L21.1982 33.5039L21.8738 34.2412L22.5496 33.6221L21.874 32.8848ZM21.1982 33.5039L21.8738 32.7666L21.198 32.1474L20.5225 32.8848L19.8469 33.6221L20.5227 34.2412L21.1982 33.5039ZM20.5225 32.8848L21.1979 32.1474L6.08366 18.3026L5.4082 19.04L4.73274 19.7774L19.847 33.6222L20.5225 32.8848ZM5.4082 19.04L5.97393 18.2154C3.5412 16.5464 2.00015 13.9931 2 11.0927L1 11.0928L0 11.0928C0.000191987 14.7506 1.95239 17.8818 4.84247 19.8646L5.4082 19.04ZM1 11.0928L2 11.0928C2.00005 6.07477 6.68489 2.00017 12.4717 2L12.4717 1L12.4717 0C5.86256 0.000188947 6.89626e-05 4.70764 0 11.0928L1 11.0928ZM12.4717 1L12.4716 2C15.6572 2.0001 18.5509 3.25654 20.4811 5.23703L21.1973 4.53906L21.9134 3.8411C19.5902 1.45741 16.1724 0.00011915 12.4717 0L12.4717 1ZM21.1973 4.53906L21.9134 5.23699C23.8438 3.25622 26.7387 2 29.9248 2V1V0C26.2238 0 22.8047 1.45685 20.4811 3.84113L21.1973 4.53906ZM2.05078 11.9941L1.05715 12.1068C1.0583 12.1169 1.05944 12.1267 1.06044 12.1354L2.05371 12.0195L3.04698 11.9037C3.04601 11.8954 3.04518 11.8883 3.04441 11.8815L2.05078 11.9941ZM2.05371 12.0195L3.04698 11.9037C3.03153 11.7712 3.01986 11.6374 3.01197 11.5022L2.01367 11.5605L1.01537 11.6189C1.02547 11.7918 1.04046 11.964 1.06044 12.1354L2.05371 12.0195ZM2.01367 11.5605L1.01731 11.6458L1.05442 12.0794L2.05078 11.9941L3.04714 11.9089L3.01003 11.4753L2.01367 11.5605Z" fill="var(--stroke-0, #9A9A9A)" mask="url(#path-1-outside-1_0_4)"/>
</g>
</svg>
